<svg width="28" height="26" fill="none" xmlns="http://www.w3.org/2000/svg"><path d="M20.77.258c-2.82 0-4.955 1.656-6.77 3.386C12.27 1.808 10.05.258 7.23.258 3.255.258.457 3.674.457 7.4c0 1.998.819 3.438 1.715 4.79l10.523 12.615c1.181 1.25 1.404 1.25 2.585 0L25.828 12.19c1.053-1.352 1.714-2.792 1.714-4.79 0-3.725-2.798-7.14-6.771-7.14Zm3.386 11.58L14 23.956 3.844 11.788C2.629 10.1 2.15 8.961 2.15 7.4c0-2.91 2.078-5.53 5.078-5.554 2.468-.02 5.265 2.5 6.771 4.4 1.466-1.834 4.303-4.4 6.77-4.4 2.922 0 5.079 2.644 5.079 5.554 0 1.562-.378 2.785-1.693 4.44Z" fill="#000"/></svg>